# xmcd
#
# Track frame offsets:
#	150
#	8800
#	31486
#	50220
#	69853
#	91252
#	108112
#	123838
#	139747
#	159355
#	179136
#
# Disc length: 2651 seconds
#
# Revision: 0
# Processed by: cddbd v1.5.1PL2 Copyright (c) Steve Scherf et al.
# Submitted via: audiograbber 1.83.01
#
DISCID=8c0a590b
DTITLE=Ruoska - Amortem
DYEAR=2006
DGENRE=Industrial
TTITLE0=Intro
TTITLE1=Amortem
TTITLE2=Pure Minua
TTITLE3=Taivas Palaa
TTITLE4=J‰rvet J‰ihin J‰‰
TTITLE5=Sika
TTITLE6=Viiden T‰hden Helvetti
TTITLE7=Mies Yli Laidan
TTITLE8=Tuonen Orjat
TTITLE9=Alasin
TTITLE10=Kes‰ Tulla Saa
EXTD=
EXTT0=
EXTT1=
EXTT2=
EXTT3=
EXTT4=
EXTT5=
EXTT6=
EXTT7=
EXTT8=
EXTT9=
EXTT10=
PLAYORDER=
